<svg viewBox="-18 0 512 512.00104" xmlns="http://www.w3.org/2000/svg"><path d="m211.503906 78.847656h51.667969v32.253906h-51.667969zm0 0" fill="#ededed"/><path d="m211.503906 78.847656h20.003906v32.253906h-20.003906zm0 0" fill="#e0e0de"/><path d="m182.257812 51.261719c6.222657 12.644531 16.574219 22.796875 29.246094 28.597656h51.667969c11.503906-5.949219 20.886719-16.816406 26.683594-28.597656zm0 0" fill="#e24040"/><path d="m202.257812 51.261719h-20c6.222657 12.644531 16.574219 22.796875 29.246094 28.597656h20.003906c-12.671874-5.800781-23.027343-15.953125-29.25-28.597656zm0 0" fill="#d33131"/><path d="m169.886719 130.460938h-77.613281c-37.316407 0-67.570313 30.25-67.570313 67.566406v57.121094h76.855469v-29.152344c0-10.316406 8.363281-18.679688 18.679687-18.679688h49.648438zm0 0" fill="#ededed"/><path d="m112.273438 130.460938h-20c-37.316407 0-67.570313 30.25-67.570313 67.566406v57.121094h20.003906v-57.121094c0-37.316406 30.25-67.566406 67.566407-67.566406zm0 0" fill="#e0e0de"/><path d="m400.335938 130.460938h-95.546876v76.855468h70.78125c8.550782 0 15.480469 6.929688 15.480469 15.476563v274.332031c0 4.066406 3.296875 7.363281 7.363281 7.363281h62.125c4.070313 0 7.367188-3.296875 7.367188-7.363281v-299.097656c0-37.316406-30.253906-67.566406-67.570312-67.566406zm0 0" fill="#ededed"/><g fill="#e0e0de"><path d="m304.789062 130.460938h23v76.855468h-23zm0 0"/><path d="m414.050781 497.125v-274.332031c0-8.546875-6.929687-15.476563-15.476562-15.476563h-23.003907c8.550782 0 15.480469 6.929688 15.480469 15.476563v274.332031c0 4.066406 3.296875 7.367188 7.363281 7.367188h23c-4.066406 0-7.363281-3.300782-7.363281-7.367188zm0 0"/><path d="m391.050781 331.773438v165.351562c0 4.066406 3.296875 7.367188 7.363281 7.367188h62.125c4.070313 0 7.367188-3.300782 7.367188-7.367188v-165.351562zm0 0"/></g><path d="m414.050781 497.125v-165.351562h-23v165.351562c0 1.269531.320313 2.46875.886719 3.511719.453125.835937 1.066406 1.570312 1.792969 2.171875 1.273437 1.050781 2.902343 1.683594 4.683593 1.683594h23c-4.066406 0-7.363281-3.300782-7.363281-7.367188zm0 0" fill="#c6c6c4"/><path d="m111.882812 252.148438h-96.863281c-4.640625 0-8.402343 3.761718-8.402343 8.402343v35.070313c0 4.640625 3.761718 8.402344 8.402343 8.402344h96.863281c4.644532 0 8.40625-3.761719 8.40625-8.402344v-35.070313c0-4.640625-3.761718-8.402343-8.40625-8.402343zm0 0" fill="#e0e0de"/><path d="m111.882812 284.023438h-96.863281c-4.640625 0-8.402343-3.761719-8.402343-8.402344v20c0 4.640625 3.761718 8.402344 8.402343 8.402344h96.863281c4.644532 0 8.40625-3.761719 8.40625-8.402344v-20c0 4.640625-3.761718 8.402344-8.40625 8.402344zm0 0" fill="#c6c6c4"/><path d="m295.789062 109.964844h-116.902343c-6.597657 0-12 5.398437-12 12v93.84375c0 6.601562 5.402343 12 12 12h116.902343c6.597657 0 12-5.398438 12-12v-93.84375c0-6.601563-5.402343-12-12-12zm0 0" fill="#b3dbf4"/><path d="m186.886719 215.808594v-93.84375c0-6.601563 5.402343-12 12.003906-12h-20.003906c-6.597657 0-12 5.398437-12 12v93.84375c0 6.601562 5.402343 12 12 12h20.003906c-6.601563 0-12.003906-5.398438-12.003906-12zm0 0" fill="#8fc8e2"/><path d="m166.886719 183.40625v32.402344c0 6.601562 5.402343 12 12 12h116.902343c6.597657 0 12-5.398438 12-12v-32.402344zm0 0" fill="#8fc8e2"/><path d="m186.886719 215.808594v-32.402344h-20v32.402344c0 6.601562 5.402343 12 12 12h20.003906c-6.601563 0-12.003906-5.398438-12.003906-12zm0 0" fill="#6fbdd8"/><path d="m298.074219 7.492188h-121.472657c-5.367187 0-9.714843 4.347656-9.714843 9.710937v24.980469c0 5.363281 4.347656 9.710937 9.714843 9.710937h121.472657c5.367187 0 9.714843-4.347656 9.714843-9.710937v-24.980469c0-5.363281-4.347656-9.710937-9.714843-9.710937zm0 0" fill="#ff737d"/><path d="m186.886719 42.183594v-24.980469c0-5.363281 4.351562-9.710937 9.714843-9.710937h-20c-5.367187 0-9.714843 4.347656-9.714843 9.710937v24.980469c0 5.363281 4.347656 9.710937 9.714843 9.710937h20c-5.363281 0-9.714843-4.347656-9.714843-9.710937zm0 0" fill="#f55"/><path d="m211.503906 7.492188h51.667969v44.402343h-51.667969zm0 0" fill="#f55"/><path d="m211.503906 7.492188h20.003906v44.402343h-20.003906zm0 0" fill="#e24040"/><path d="m98.058594 383.34375-30.59375-52.828125c-1.785156-3.085937-6.242188-3.085937-8.027344 0l-30.59375 52.828125c-15.4375 26.664062 3.796875 60.035156 34.609375 60.035156 30.808594 0 50.046875-33.371094 34.605469-60.035156zm0 0" fill="#b3dbf4"/><path d="m48.84375 383.34375 24.609375-42.492188-5.984375-10.335937c-1.789062-3.085937-6.242188-3.085937-8.03125 0l-30.59375 52.828125c-15.4375 26.664062 3.800781 60.035156 34.609375 60.035156 3.496094 0 6.835937-.449218 10-1.25-24.71875-6.257812-38.296875-35.148437-24.609375-58.785156zm0 0" fill="#8fc8e2"/><path d="m179.773438 102.472656c-9.972657 0-19.5 7.636719-19.5 20.496094h-67.113282c-41.394531 0-75.070312 33.675781-75.070312 75.070312v46.617188h-2.183594c-8.773438 0-15.90625 7.136719-15.90625 15.902344v35.070312c0 8.773438 7.136719 15.90625 15.90625 15.90625h96.863281c8.769531 0 15.902344-7.136718 15.902344-15.90625v-35.070312c0-8.769532-7.132813-15.902344-15.902344-15.902344h-2.824219v-18.648438c0-6.167968 5.015626-11.183593 11.179688-11.183593h39.148438c0 12.855469 9.53125 20.496093 19.5 20.496093h116.902343c10.75 0 19.5-8.75 19.5-19.5v-.996093h60.28125c4.398438 0 7.976563 3.578125 7.976563 7.980469v274.332031c0 8.195312 6.671875 14.863281 14.867187 14.863281h62.125c8.195313 0 14.867188-6.667969 14.867188-14.863281v-299.097657c0-41.394531-33.679688-75.070312-75.070313-75.070312h-85.046875c0-12.757812-9.4375-20.496094-19.5-20.496094h-25.121093v-18.226562c9.28125-5.730469 17.601562-14.476563 23.636718-24.839844h3.769532c9.492187 0 17.214843-7.722656 17.214843-17.210938v-24.980468c0-9.492188-7.722656-17.214844-17.214843-17.214844-4.265626 0-117.195313 0-121.476563 0-9.492187 0-17.210937 7.722656-17.210937 17.214844v24.976562c0 9.492188 7.71875 17.214844 17.210937 17.214844h1.234375c6.285156 10.570312 15.359375 19.28125 26.171875 25.109375v17.957031zm-66.101563 158.085938v35.070312c0 .5-.402344.90625-.902344.90625h-96.863281c-.5 0-.90625-.40625-.90625-.90625v-35.070312c0-.496094.40625-.898438.90625-.898438h96.863281c.5 0 .902344.402344.902344.898438zm-18.726563-34.550782v18.648438h-61.855468v-46.617188c0-33.121093 26.945312-60.070312 60.070312-60.070312h67.113282v61.855469h-39.148438c-14.4375 0-26.179688 11.746093-26.179688 26.183593zm366.34375 270.992188h-61.855468v-157.71875h61.855468zm-60.070312-359.03125c33.125 0 60.070312 26.949219 60.070312 60.070312v126.242188h-61.855468v-101.476562c0-12.671876-10.308594-22.980469-22.980469-22.980469h-60.28125c0-6.5 0-54.085938 0-61.855469zm-100.046875-15.992188v53.9375h-45.449219c-4.140625 0-7.5 3.359376-7.5 7.5 0 4.144532 3.359375 7.5 7.5 7.5h45.449219v21.535157c0 4.339843-3.527344 7.871093-7.867187 7.871093h-110.160157c-4.339843 0-7.871093-3.53125-7.871093-7.871093 0-8.949219 0 .6875 0-21.535157h45.449218c4.144532 0 7.5-3.355468 7.5-7.5 0-4.140624-3.355468-7.5-7.5-7.5h-45.449218c0-6.1875 0-47.738281 0-53.9375 0-2.441406 2.0625-4.5 4.5-4.5h116.902343c2.4375 0 4.496094 2.058594 4.496094 4.5zm0-104.761718v24.976562c0 1.222656-.992187 2.214844-2.210937 2.214844-8.949219 0-4.179688 0-27.40625 0v-29.40625h27.40625c1.21875 0 2.210937.992188 2.210937 2.214844zm-44.617187-2.214844v29.40625h-36.664063v-29.40625zm-81.28125 2.214844c0-1.222656.992187-2.214844 2.210937-2.214844h27.40625v29.40625c-17.519531 0-16.996094 0-27.40625 0-1.21875 0-2.210937-.996094-2.210937-2.214844zm21.859374 42.191406h79.953126c-4.339844 5.4375-9.457032 9.910156-14.902344 12.964844h-48.132813c-6.480469-3.136719-12.234375-7.566406-16.917969-12.964844zm22.757813 27.964844h36.664063v15.101562h-36.664063zm0 0"/><path d="m64.335938 338.5625c30.386718 52.46875 28.449218 49.054688 29.195312 50.566406 1.839844 3.710938 6.335938 5.234375 10.050781 3.394532 3.710938-1.839844 5.230469-6.339844 3.394531-10.050782-1.046874-2.117187 1.285157 2.007813-32.132812-55.703125-2.195312-3.792969-6.125-6.058593-10.507812-6.058593-4.378907 0-8.308594 2.265624-10.503907 6.058593l-30.59375 52.828125c-18.335937 31.664063 4.480469 71.292969 41.097657 71.292969 18.339843 0 34.71875-10.273437 42.746093-26.8125 1.808594-3.726563.253907-8.214844-3.472656-10.023437-3.726563-1.808594-8.214844-.253907-10.023437 3.472656-5.496094 11.328125-16.703126 18.363281-29.25 18.363281-25.027344 0-40.671876-27.09375-28.113282-48.777344zm0 0"/></svg>