<?xml version="1.0" encoding="iso-8859-1"?>
<!-- Generator: Adobe Illustrator 19.0.0, SVG Export Plug-In . SVG Version: 6.00 Build 0)  -->
<svg version="1.1" id="Capa_1" xmlns="http://www.w3.org/2000/svg" xmlns:xlink="http://www.w3.org/1999/xlink" x="0px" y="0px"
	 viewBox="0 0 512 512" style="enable-background:new 0 0 512 512;" xml:space="preserve">
<g>
	<g>
		<path d="M423.45,429.943c0-0.009,0-0.017,0-0.017L394.351,7.945C394.044,3.473,390.315,0,385.835,0H10.368
			C7.774,0,5.317,1.186,3.695,3.209c-1.613,2.031-2.227,4.685-1.647,7.219l42.394,186.513L28.741,430.012
			c-1.391,20.463,5.282,40.243,18.773,55.697c13.5,15.454,32.205,24.73,52.659,26.112c1.775,0.12,3.558,0.179,5.342,0.179h241.519
			c42.342-0.111,76.698-34.662,76.595-76.979C423.629,433.323,423.561,431.633,423.45,429.943z M347.008,494.933H105.515
			c-1.391,0-2.79-0.043-4.198-0.145c-15.915-1.075-30.464-8.286-40.96-20.301c-10.487-12.015-15.676-27.409-14.601-43.324
			l15.787-234.325c0.06-0.828-0.009-1.655-0.188-2.466L21.061,17.067h356.804l28.553,414.02c0.094,1.306,0.145,2.62,0.145,3.951
			C406.639,467.977,379.922,494.848,347.008,494.933z"/>
	</g>
</g>
<g>
	<g>
		<path d="M476.032,0h-93.867v17.067h93.867c9.412,0,17.067,7.654,17.067,17.067v213.342c0.017,7.953-3.584,15.334-9.233,19.78
			l-76.8,49.493l9.25,14.353l77.423-49.946c10.462-8.158,16.452-20.446,16.427-33.69V34.133C510.166,15.309,494.857,0,476.032,0z"/>
	</g>
</g>
<g>
	<g>
		<path d="M458.966,34.133h-68.267V51.2h68.267v187.716c0,2.517-1.126,4.924-3.046,6.528l-57.353,33.835l8.67,14.703l57.847-34.133
			c0.29-0.171,0.572-0.358,0.828-0.555c6.332-4.796,10.112-12.407,10.121-20.361V51.2C476.032,41.788,468.378,34.133,458.966,34.133
			z"/>
	</g>
</g>
<g>
	<g>
		<path d="M58.198,51.2c-4.872-0.094-8.661,3.524-8.832,8.235l-4.864,136.533c-0.162,4.71,3.516,8.661,8.226,8.832
			c0.102,0,0.205,0,0.307,0c4.574,0,8.363-3.627,8.525-8.235l4.864-136.533C66.586,55.322,62.908,51.371,58.198,51.2z"/>
	</g>
</g>
<g>
</g>
<g>
</g>
<g>
</g>
<g>
</g>
<g>
</g>
<g>
</g>
<g>
</g>
<g>
</g>
<g>
</g>
<g>
</g>
<g>
</g>
<g>
</g>
<g>
</g>
<g>
</g>
<g>
</g>
</svg>
