<?xml version="1.0" encoding="iso-8859-1"?>
<!-- Generator: Adobe Illustrator 19.0.0, SVG Export Plug-In . SVG Version: 6.00 Build 0)  -->
<svg version="1.1" id="Capa_1" xmlns="http://www.w3.org/2000/svg" xmlns:xlink="http://www.w3.org/1999/xlink" x="0px" y="0px"
	 viewBox="0 0 512 512" style="enable-background:new 0 0 512 512;" xml:space="preserve">
<g>
	<g transform="translate(16 1)">
		<path style="fill:#00838F;" d="M308.267,33.133v23.125c0.009,7.449-2.946,14.595-8.213,19.862s-12.413,8.222-19.862,8.213h-80.384
			c-7.449,0.009-14.595-2.946-19.862-8.213c-5.267-5.267-8.222-12.413-8.213-19.862l0-23.125H308.267z"/>
		<path style="fill:#C52828;" d="M359.211,388.547c-0.729-23.347-6.987-46.188-18.261-66.645
			c-13.241-20.573-29.072-39.358-47.104-55.893c-20.651-20.821-36.096-56.405-9.387-78.848c-0.256,0.171-16.384-5.632-17.664-5.888
			c-11.771-3.109-24.049-3.806-36.096-2.048h-0.085c-1.28,0.256-2.645,0.512-3.925,0.853
			c-43.691,10.496-54.955,52.651-45.653,88.491c-8.537-1.897-17.306-2.529-26.027-1.877c-2.048,0.171-3.925,0.427-5.803,0.768
			c-10.023,1.561-19.353,6.077-26.795,12.971c-1.607,1.539-2.211,3.852-1.562,5.98c0.649,2.128,2.442,3.71,4.634,4.09
			c5.137,1.212,10.208,2.693,15.189,4.437c12.971,5.547,23.893,16.725,21.675,29.611c-2.305,7.437-6.795,14.008-12.885,18.859
			c-15.585,16.331-24.451,37.93-24.832,60.501c0,50.859,45.824,92.672,104.789,97.963c4.225,0.414,8.469,0.613,12.715,0.597
			c31.948,0.354,62.895-11.137,86.869-32.256c18.55-16.81,29.482-40.43,30.293-65.451
			C359.566,399.358,359.537,393.945,359.211,388.547z"/>
		<path style="fill:#F44335;" d="M333.611,388.547c-0.729-23.347-6.987-46.188-18.261-66.645
			c-13.241-20.573-29.072-39.358-47.104-55.893c-20.651-20.821-36.096-56.405-9.387-78.848c-0.256,0.171-16.384-5.632-17.664-5.888
			c-3.461-0.863-6.964-1.546-10.496-2.048h-0.085c-1.28,0.256-2.645,0.512-3.925,0.853c-43.691,10.496-54.955,52.651-45.653,88.491
			c-8.537-1.897-17.306-2.529-26.027-1.877c0.102,0.634,0.244,1.261,0.427,1.877c-2.133-0.427-4.267-0.853-6.229-1.109
			c-10.023,1.561-19.353,6.077-26.795,12.971c-1.607,1.539-2.211,3.852-1.562,5.98c0.649,2.128,2.442,3.71,4.634,4.09
			c5.137,1.212,10.208,2.693,15.189,4.437c12.971,5.547,23.893,16.725,21.675,29.611c-2.305,7.437-6.795,14.008-12.885,18.859
			c-15.585,16.331-24.451,37.93-24.832,60.501c0,50.859,45.824,92.672,104.789,97.963c27.442-2.251,53.408-13.362,73.984-31.659
			c18.55-16.81,29.482-40.43,30.293-65.451C333.966,399.358,333.937,393.945,333.611,388.547z"/>
		<path style="fill:#00838F;" d="M325.333,7.533v25.6c0,4.713-3.82,8.533-8.533,8.533H163.029c-4.634-0.12-8.337-3.897-8.363-8.533
			v-25.6H325.333z"/>
		<g>
			<path style="fill:#00BCD4;" d="M282.667,33.133v23.125c0.009,7.449-2.946,14.595-8.213,19.862s-12.413,8.222-19.862,8.213
				h-54.784c-7.449,0.009-14.595-2.946-19.862-8.213c-5.267-5.267-8.222-12.413-8.213-19.862V41.667h-8.704
				c-4.634-0.12-8.337-3.897-8.363-8.533H282.667z"/>
			<path style="fill:#00BCD4;" d="M299.733,7.533v25.6c0,4.713-3.82,8.533-8.533,8.533H163.029c-4.634-0.12-8.337-3.897-8.363-8.533
				v-25.6H299.733z"/>
		</g>
		<path style="fill:#FFEB3A;" d="M284.8,495.725c-13.786,4.449-28.181,6.723-42.667,6.741c-4.779,0-9.472-0.256-14.08-0.683v-0.341
			c-26.795-11.605-55.381-32.256-55.723-59.648c0.38-14.261,7.225-27.575,18.603-36.181c8.619-6.997,19.115-11.947,27.819-19.029
			c8.265-6.119,14.291-14.784,17.152-24.661c1.749-11.116,2.264-22.392,1.536-33.621c0,0.768,4.096,2.645,4.693,3.072
			c14.302,9.024,24.735,23.047,29.269,39.339c0.78,2.931,1.266,5.933,1.451,8.96c0.065,0.068,0.097,0.162,0.085,0.256
			c1.195,15.445-7.339,29.269-16.299,42.325c-0.427,0.597,7.595,3.584,8.277,3.84c9.313,2.47,19.214,1.342,27.733-3.157
			c2.834-1.538,5.284-3.697,7.168-6.315c1.523-2.805,2.698-5.785,3.499-8.875c0,0.171,3.584,3.925,3.84,4.352
			c1.53,2.127,2.872,4.382,4.011,6.741c2.015,4.088,3.588,8.379,4.693,12.8C322.944,457.923,308.352,480.28,284.8,495.725z"/>
	</g>
	<g>
		<path d="M132.514,275.268c-3.841,3.549-5.396,8.936-4.036,13.986c1.471,5.258,5.702,9.289,11.025,10.505
			c6.127,1.485,12.937,3.703,13.79,4.028c9.327,3.977,18.082,11.785,16.606,20.275c-1.937,5.364-5.318,10.089-9.771,13.653l-0.7,0.7
			c-6.784,6.924-12.442,14.868-16.768,23.543c-6.912,13.271-10.549,28.003-10.607,42.965C132.053,463.966,188.587,512,258.15,512
			c14.9-0.035,29.707-2.354,43.904-6.878c0.425-0.101,0.842-0.235,1.246-0.401c17.599-5.563,33.797-14.844,47.497-27.213
			c20.115-18.35,32.004-44.019,32.99-71.228c0.309-5.737,0.278-11.487-0.094-17.22c-0.73-24.7-7.357-48.867-19.328-70.485
			c-13.655-21.166-29.929-40.522-48.435-57.609c-10.692-10.761-21.862-28.16-21.111-44.604c0.332-8.514,4.412-16.445,11.145-21.666
			c2.534-2.121,3.615-5.513,2.777-8.709c-0.838-3.196-3.446-5.621-6.694-6.225c-1.604-0.478-5.973-1.988-9.728-3.302
			c-3.755-1.314-6.912-2.364-7.475-2.5c-14.412-3.926-29.557-4.336-44.16-1.195c-18.441,3.97-34.446,15.33-44.279,31.428
			c-9.454,16.725-12.992,36.149-10.044,55.134C166.929,256.297,147.163,262.148,132.514,275.268z M247.219,494.473
			c-11.998-5.214-50.031-23.893-50.347-51.729c0.408-11.644,6.053-22.482,15.36-29.491c4.133-3.18,8.453-6.109,12.937-8.772
			c5.192-3.09,10.18-6.51,14.933-10.24c9.779-7.253,16.872-17.548,20.164-29.269c1.393-6.158,2.041-12.461,1.929-18.773
			c8.128,7.458,13.997,17.05,16.939,27.682c0.667,2.532,1.099,5.12,1.289,7.731c0.998,12.544-6.434,24.585-14.822,36.873
			c-1.537,2.292-1.894,5.176-0.964,7.774c0.503,1.391,2.039,5.615,14.02,9.054c3.838,1.068,7.801,1.619,11.785,1.638
			c7.828-0.005,15.537-1.908,22.468-5.547c2.787-1.571,5.314-3.563,7.492-5.905c1.352,3.032,2.448,6.172,3.277,9.387
			c7.083,26.359-12.885,44.809-26.342,53.905c-12.666,4.058-25.885,6.131-39.185,6.144
			C254.464,494.933,250.82,494.771,247.219,494.473z M195.319,277.939c2.889,0.602,5.883-0.331,7.919-2.467
			c2.035-2.136,2.823-5.172,2.082-8.029c-5.374-18.197-3.321-37.781,5.709-54.468c7.45-12.205,19.638-20.763,33.647-23.629
			c11.867-2.469,24.15-2.086,35.84,1.118c0.649,0.196,2.56,0.853,4.907,1.707c-4.684,6.954-7.343,15.072-7.68,23.45
			c0.575,21.942,10.033,42.71,26.206,57.549c17.39,16.048,32.722,34.192,45.645,54.016c10.616,19.336,16.467,40.926,17.067,62.976
			c0.33,5.057,0.359,10.129,0.085,15.189c-0.671,22.8-10.609,44.341-27.52,59.648c-0.316,0.299-0.683,0.546-1.007,0.853
			c4.413-11.28,5.083-23.68,1.911-35.371c-1.276-4.992-3.084-9.832-5.393-14.438c-1.338-2.751-2.893-5.39-4.651-7.893
			c-0.179-0.265-1.015-1.229-2.014-2.313c-0.572-0.631-1.229-1.331-1.647-1.809c-1.767-2.618-4.836-4.046-7.977-3.712
			c-3.141,0.334-5.84,2.376-7.017,5.308c-0.503,1.254-0.896,2.5-1.271,3.738c-0.277,1.199-0.731,2.349-1.348,3.413
			c-1.142,1.58-2.62,2.888-4.326,3.831c-5.875,3.038-12.592,4.041-19.098,2.85c8.186-11.469,12.402-25.297,12.006-39.381
			c-0.277-3.533-0.871-7.035-1.775-10.462c-5.007-18.396-16.75-34.236-32.896-44.373c-0.256-0.154-0.811-0.469-1.536-0.853
			c-0.401-0.213-0.93-0.469-1.408-0.742c-1.576-1.738-3.798-2.75-6.144-2.799c-2.274-0.09-4.486,0.748-6.129,2.322
			c-1.643,1.574-2.576,3.748-2.583,6.024c-0.068,3.354,0,6.699,0.077,10.052c0.491,7.272,0.04,14.577-1.34,21.734
			c-2.464,8.062-7.499,15.096-14.336,20.028c-4.213,3.261-8.624,6.256-13.21,8.969c-5.074,3.039-9.956,6.388-14.618,10.027
			c-13.35,10.269-21.319,26.041-21.666,42.88c0.397,12.672,5.211,24.807,13.611,34.304c-26.446-14.628-43.273-42.065-44.322-72.269
			c0.054-12.228,3.036-24.266,8.695-35.106c3.526-7.156,8.166-13.705,13.747-19.405l0.683-0.691
			c7.114-5.86,12.191-13.82,14.507-22.741c2.697-15.548-7.791-30.814-26.701-38.886c-1.323-0.563-6.477-2.227-11.819-3.703
			C156.954,278.059,171.614,273.067,195.319,277.939z"/>
		<path d="M503.467,0H8.533C3.821,0,0,3.821,0,8.533s3.821,8.533,8.533,8.533h153.6v17.067c0,9.426,7.641,17.067,17.067,17.067
			v8.533c0,18.851,15.282,34.133,34.133,34.133h34.133v8.533c-4.713,0-8.533,3.821-8.533,8.533c0,4.713,3.821,8.533,8.533,8.533
			h17.067c4.713,0,8.533-3.821,8.533-8.533c0-4.713-3.82-8.533-8.533-8.533v-8.533h34.133c18.851,0,34.133-15.282,34.133-34.133
			V51.2c9.426,0,17.067-7.641,17.067-17.067V17.067h153.6c4.713,0,8.533-3.821,8.533-8.533S508.18,0,503.467,0z M315.733,59.733
			c0,9.426-7.641,17.067-17.067,17.067h-85.333c-9.426,0-17.067-7.641-17.067-17.067V51.2h119.467V59.733z M332.8,34.133H179.2
			V17.067h153.6V34.133z"/>
	</g>
</g>
<g>
</g>
<g>
</g>
<g>
</g>
<g>
</g>
<g>
</g>
<g>
</g>
<g>
</g>
<g>
</g>
<g>
</g>
<g>
</g>
<g>
</g>
<g>
</g>
<g>
</g>
<g>
</g>
<g>
</g>
</svg>
