<?xml version="1.0"?>
<svg xmlns="http://www.w3.org/2000/svg" viewBox="0 0 64 64" width="512" height="512"><path d="m39.471 10.531-.471-7.531-3.233 9.053a30.333 30.333 0 0 0 -1.767 10.2v2.747a18.8 18.8 0 0 0 5.471-14.469z" fill="#5fa819"/><path d="m16.616 16.2-6.616-2.2 1.1 4.963a16.649 16.649 0 0 0 16.255 13.037h.645l-10-10 10 10a16.65 16.65 0 0 0 -11.384-15.8z" fill="#5fa819"/><path d="m61 32-8.319-2.912a12 12 0 0 0 -15.408 7.712l-2.273 7.2a41.219 41.219 0 0 1 24.033-11.754z" fill="#3d7606"/><path d="m18.526 50.221 8.474 6.779v-2.675a14.651 14.651 0 0 0 -5.86-11.72 14.65 14.65 0 0 0 -13.422-2.178l-4.718 1.573 1.072.357a46.848 46.848 0 0 1 14.454 7.864z" fill="#3d7606"/><path d="m2.684 42.949 1.071.357a45.708 45.708 0 0 1 14.145 7.694l8.475 6.78a.942.942 0 0 0 .184.1l-.006.013 3.447 1.725v2.382h2v-14.5l3.6-2.7-.011-.014a1.011 1.011 0 0 0 .118-.079 40.412 40.412 0 0 1 23.45-11.469l1.967-.246a1 1 0 0 0 .206-1.936l-8.319-2.911a13 13 0 0 0 -16.691 8.355l-2.177 6.893-2.143 1.607v-14.395a5.724 5.724 0 0 1 2.555-4.773l-.011-.016a.986.986 0 0 0 .163-.109 19.811 19.811 0 0 0 5.762-15.238l-.469-7.531a1 1 0 0 0 -.858-.928 1.009 1.009 0 0 0 -1.081.654l-3.234 9.052a31.254 31.254 0 0 0 -1.827 10.537v2.253a7.71 7.71 0 0 0 -3 6.1v1.981l-1.017-1.017a17.619 17.619 0 0 0 -12.05-16.313l-6.617-2.2a1 1 0 0 0 -1.293 1.166l1.1 4.962a17.547 17.547 0 0 0 17.232 13.815h.231l2.414 2.414v21.968l-2-1v-2.057a15.65 15.65 0 0 0 -20.6-14.846l-4.716 1.572a1 1 0 0 0 0 1.9zm35.543-5.849a11.024 11.024 0 0 1 10.478-7.695 11.04 11.04 0 0 1 3.646.625l4.417 1.546a42.507 42.507 0 0 0 -19.694 9.175zm-3.227-14.847a29.272 29.272 0 0 1 1.708-9.864l1.6-4.472.167 2.677a17.816 17.816 0 0 1 -3.475 11.72zm-22.921-3.507-.72-3.239 4.941 1.647a15.619 15.619 0 0 1 10.465 12.2l-8.058-8.058-1.414 1.414 8.177 8.177a15.54 15.54 0 0 1 -13.391-12.141zm-4.044 22.63a13.648 13.648 0 0 1 17.965 12.949v.594l-6.85-5.479a47.657 47.657 0 0 0 -13.043-7.421z"/></svg>
