<?xml version="1.0" encoding="iso-8859-1"?>
<!-- Generator: Adobe Illustrator 19.0.0, SVG Export Plug-In . SVG Version: 6.00 Build 0)  -->
<svg version="1.1" id="Capa_1" xmlns="http://www.w3.org/2000/svg" xmlns:xlink="http://www.w3.org/1999/xlink" x="0px" y="0px"
	 viewBox="0 0 512.001 512.001" style="enable-background:new 0 0 512.001 512.001;" xml:space="preserve">
<polygon style="fill:#399D4D;" points="260.259,298.667 311.459,298.667 307.961,341.078 294.393,503.467 226.126,503.467 
	213.326,349.526 209.059,298.667 "/>
<path style="fill:#89D84F;" d="M134.222,68.352c9.293-41.301,50.304-67.243,91.597-57.95c14.788,3.328,28.254,10.965,38.707,21.939
	c29.218-30.677,77.781-31.863,108.459-2.645c15.223,14.498,23.834,34.611,23.808,55.637c0,0.683-0.085,1.28-0.085,1.963
	c41.276,9.267,67.226,50.253,57.958,91.529c-2.884,12.843-9.028,24.73-17.852,34.509c28.348,31.454,25.83,79.94-5.632,108.288
	c-14.114,12.723-32.452,19.746-51.456,19.712h-68.267l-3.499-0.256l3.499-42.411h-102.4l4.267,50.859l-4.267,0.341h-68.267
	c-42.419-0.043-76.766-34.466-76.715-76.885c0.026-23.996,11.264-46.601,30.379-61.099c-36.898-20.915-49.86-67.78-28.954-104.678
	c13.628-24.047,39.125-38.912,66.756-38.938C132.942,68.267,133.539,68.352,134.222,68.352z"/>
<path style="fill:#D1FFC5;" d="M348.153,196.267l21.956-38.4l-14.857-8.533l-32.299,56.559
	c-20.002,9.242-38.306,21.777-54.161,37.086v-86.647l7.799-10.914c21.06-29.431,48.981-53.282,81.348-69.47l-7.629-15.275
	c-31.795,15.949-59.639,38.775-81.519,66.825v-59.23h-17.067v117.248L216.594,153.6h0.998V85.334h-17.067v54.426
	c-24.516-18.705-54.494-28.834-85.333-28.826V128c30.831-0.017,60.561,11.486,83.354,32.256l53.18,48.324v67.046l-10.957-6.093
	c-21.043-11.648-45.286-16.188-69.12-12.962l-31.983-56.038l-14.814,8.465l29.303,51.285c-9.446,2.85-18.475,6.938-26.846,12.169
	l-16.64,10.411l9.045,14.507l16.631-10.411c29.21-18.227,66.005-19.191,96.128-2.509l19.251,10.701v165.649h17.067V267.734
	l1.391-1.596c17.203-19.644,38.477-35.302,62.353-45.875c22.886-10.274,47.701-15.548,72.789-15.462v-17.067
	C385.955,187.717,366.678,190.592,348.153,196.267z"/>
<path d="M405.198,80.726C402.698,35.482,365.313,0.052,319.993,0c-20.361-0.068-40.064,7.236-55.467,20.548
	c-35.729-30.652-89.54-26.539-120.192,9.19c-7.552,8.798-13.227,19.046-16.683,30.123c-47.036,2.526-83.123,42.701-80.597,89.737
	c1.34,24.943,13.542,48.051,33.399,63.215c-16.06,15.932-25.062,37.632-24.994,60.254c0.051,47.104,38.229,85.282,85.333,85.333
	h64.683l12.117,145.775c0.367,4.437,4.087,7.842,8.533,7.825h68.267c4.446,0.017,8.166-3.388,8.533-7.825l12.8-154.308h64
	c47.07,0.06,85.274-38.059,85.333-85.129c0.026-18.543-6.007-36.591-17.169-51.405c28.331-37.555,20.847-90.957-16.708-119.287
	c-7.825-5.905-16.606-10.411-25.958-13.321H405.198z M430.499,219.026c25.182,27.989,22.912,71.091-5.069,96.282
	c-12.544,11.29-28.826,17.519-45.705,17.493h-62.549l2.816-33.425l-17.067-1.417l-16.384,196.975h-52.565l-16.384-196.975
	l-17.067,1.417l3.533,41.958h-63.266c-37.666,0.034-68.224-30.464-68.267-68.13c-0.017-21.419,10.027-41.609,27.127-54.511
	c3.755-2.85,4.489-8.201,1.638-11.955c-0.7-0.922-1.587-1.698-2.594-2.27c-32.828-18.492-44.459-60.092-25.967-92.919
	c12.177-21.623,35.132-34.927,59.938-34.748h0.051l1.314,0.068c4.079,0.119,7.663-2.671,8.533-6.656
	c8.303-36.71,44.8-59.742,81.51-51.439c13.09,2.961,25.011,9.719,34.278,19.43c3.422,3.371,8.917,3.371,12.339,0
	c12.817-13.542,30.652-21.188,49.297-21.137c37.777,0.068,68.335,30.746,68.267,68.523c0,0.068,0,0.145,0,0.213l-0.068,1.254
	c-0.102,4.07,2.688,7.637,6.656,8.533c36.71,8.252,59.776,44.698,51.524,81.399c-2.56,11.401-8.013,21.956-15.838,30.643
	C427.623,210.868,427.606,215.774,430.499,219.026z"/>
<path d="M370.066,157.867l-14.814-8.533l-32.273,56.508c-20.019,9.25-38.34,21.803-54.187,37.137v-86.647l7.799-10.923
	c21.069-29.414,48.99-53.257,81.348-69.461l-7.629-15.275c-31.787,15.966-59.631,38.793-81.519,66.833V68.267h-17.067v117.248
	L216.62,153.6h0.973V85.334h-17.067v54.4c-24.516-18.697-54.502-28.817-85.333-28.8V128c30.831-0.026,60.553,11.469,83.345,32.222
	l53.188,48.35v67.055l-10.923-6.067c-21.035-11.665-45.278-16.23-69.12-13.005l-32.017-56.021l-14.814,8.465l29.303,51.285
	c-9.438,2.85-18.466,6.946-26.829,12.169l-16.657,10.411l9.045,14.507l16.657-10.411c29.218-18.244,66.031-19.191,96.145-2.475
	l19.209,10.667v165.649h17.067V267.742l1.434-1.63c34.082-38.963,83.337-61.312,135.1-61.312v-17.067
	c-19.405,0.017-38.699,2.918-57.25,8.593L370.066,157.867z"/>
<g>
</g>
<g>
</g>
<g>
</g>
<g>
</g>
<g>
</g>
<g>
</g>
<g>
</g>
<g>
</g>
<g>
</g>
<g>
</g>
<g>
</g>
<g>
</g>
<g>
</g>
<g>
</g>
<g>
</g>
</svg>
