<?xml version="1.0"?>
<svg xmlns="http://www.w3.org/2000/svg" xmlns:xlink="http://www.w3.org/1999/xlink" version="1.1" id="Capa_1" x="0px" y="0px" viewBox="0 0 512 512" style="enable-background:new 0 0 512 512;" xml:space="preserve" width="512px" height="512px" class=""><g><path style="fill:#CAE8F9;" d="M421,75v30c0,8.399-6.599,15-15,15s-15-6.601-15-15V75c0-24.901-20.099-45-45-45H166  c-24.901,0-45,20.099-45,45v30c0,8.399-6.599,15-15,15s-15-6.601-15-15V75c0-41.4,33.6-75,75-75h180c24.6,0,46.5,11.999,60,30.3  C415.6,42.599,421,58.2,421,75z" data-original="#CAE8F9" class=""/><path style="fill:#00CC00" d="M234.699,90H97.301C60.7,90,31,119.7,31,156.299V264.7c0,17.701,6.899,34.501,19.501,46.8  C57.1,318.399,61,327.4,61,337.299V445.7c0,36.6,29.7,66.3,66.301,66.3H204.7c36.6,0,66.3-29.7,66.3-66.301v-108.4  c0-9.899,3.9-18.9,10.499-25.8C294.101,299.2,301,282.4,301,264.699v-108.4C301,119.7,271.3,90,234.699,90z" data-original="#FD4E26" class="active-path" data-old_color="#00cc00"/><path style="fill:#00B300" d="M301,156.299V264.7c0,17.701-6.899,34.501-19.501,46.8C274.9,318.399,271,327.4,271,337.299V445.7  c0,36.6-29.7,66.3-66.301,66.3H166V90h68.699C271.3,90,301,119.7,301,156.299z" data-original="#FD3018" class="" data-old_color="#00b300"/><path style="fill:#CAE8F9;" d="M181,437c0,8.399-6.599,15-15,15s-15-6.601-15-15c0-8.401,6.599-15,15-15S181,428.599,181,437z" data-original="#CAE8F9" class=""/><path style="fill:#57555C;" d="M226,150H106c-8.401,0-15,6.599-15,15v91c0,8.399,6.599,15,15,15h120c8.401,0,15-6.601,15-15v-91  C241,156.599,234.401,150,226,150z" data-original="#57555C" class=""/><g>
	<path style="fill:#CAE8F9;" d="M436,241h-60c-8.401,0-15,6.599-15,15v113.8c0,46.199,10.8,92.699,31.5,133.799   C395.2,508.7,400.3,512,406,512s10.8-3.3,13.5-8.401C440.2,462.499,451,416,451,369.8V256C451,247.599,444.401,241,436,241z" data-original="#CAE8F9" class=""/>
	<path style="fill:#CAE8F9;" d="M211,316c0,8.399-6.599,15-15,15h-60c-8.401,0-15-6.601-15-15c0-8.401,6.599-15,15-15h60   C204.401,301,211,307.599,211,316z" data-original="#CAE8F9" class=""/>
	<path style="fill:#CAE8F9;" d="M211,377c0,8.399-6.599,15-15,15h-60c-8.401,0-15-6.601-15-15c0-8.401,6.599-15,15-15h60   C204.401,362,211,368.599,211,377z" data-original="#CAE8F9" class=""/>
</g><g>
	<path style="fill:#B7E0F6;" d="M451,256v113.8c0,46.199-10.8,92.699-31.5,133.799C416.8,508.7,411.7,512,406,512V241h30   C444.401,241,451,247.599,451,256z" data-original="#B7E0F6" class=""/>
	<path style="fill:#B7E0F6;" d="M181,437c0,8.399-6.599,15-15,15v-30C174.401,422,181,428.599,181,437z" data-original="#B7E0F6" class=""/>
	<path style="fill:#B7E0F6;" d="M211,377c0,8.399-6.599,15-15,15h-30v-30h30C204.401,362,211,368.599,211,377z" data-original="#B7E0F6" class=""/>
	<path style="fill:#B7E0F6;" d="M211,316c0,8.399-6.599,15-15,15h-30v-30h30C204.401,301,211,307.599,211,316z" data-original="#B7E0F6" class=""/>
</g><path style="fill:#3C3A41" d="M241,165v91c0,8.399-6.599,15-15,15h-60V150h60C234.401,150,241,156.599,241,165z" data-original="#3C3A41" class=""/><path style="fill:#57555C;" d="M481,210v46c0,8.399-6.599,15-15,15H346c-8.401,0-15-6.601-15-15v-46l30-30h90L481,210z" data-original="#57555C" class=""/><path style="fill:#3C3A41" d="M481,210v46c0,8.399-6.599,15-15,15h-60v-91h45L481,210z" data-original="#3C3A41" class=""/><path style="fill:#00CC00" d="M481,165v45H331v-45c0-41.4,33.6-75,75-75S481,123.6,481,165z" data-original="#FD4E26" class="active-path" data-old_color="#00cc00"/><path style="fill:#00B300" d="M481,165v45h-75V90C447.4,90,481,123.6,481,165z" data-original="#FD3018" class="" data-old_color="#00b300"/></g> </svg>
