<?xml version="1.0" encoding="iso-8859-1"?>
<!-- Generator: Adobe Illustrator 19.0.0, SVG Export Plug-In . SVG Version: 6.00 Build 0)  -->
<svg version="1.1" id="Capa_1" xmlns="http://www.w3.org/2000/svg" xmlns:xlink="http://www.w3.org/1999/xlink" x="0px" y="0px"
	 viewBox="0 0 512 512" style="enable-background:new 0 0 512 512;" xml:space="preserve">
<path style="fill:#4398D1;" d="M351.214,35.31h114.759c4.873,0,8.828,3.955,8.828,8.828v194.277c0,5.517-2.578,10.717-6.965,14.054
	l-116.621,70.285l8.828,39.177l136.439-86.51c8.598-6.691,13.63-16.967,13.63-27.86V26.483C510.111,11.855,498.255,0,483.628,0
	H351.214L351.214,35.31L351.214,35.31z"/>
<g>
	<polygon style="fill:#126099;" points="351.214,0 351.214,35.31 419.363,35.31 416.539,0 	"/>
	<polygon style="fill:#126099;" points="351.214,322.763 360.042,361.931 441.371,310.369 438.166,270.354 	"/>
</g>
<path style="fill:#4398D1;" d="M420.405,436.524L390.303,0H1.889l44.138,194.207L29.678,436.63
	c-2.622,38.912,26.801,72.589,65.713,75.211c1.58,0.106,3.16,0.159,4.749,0.159h249.821c39-0.009,70.621-31.629,70.612-70.63
	C420.573,439.755,420.52,438.14,420.405,436.524z"/>
<path style="fill:#126099;" d="M46.036,203.034h-0.327c-4.873-0.177-8.678-4.273-8.501-9.145l0,0l5.041-141.241
	c0.177-4.873,4.273-8.686,9.145-8.51s8.686,4.273,8.51,9.145l0,0l-5.049,141.241C54.687,199.274,50.785,203.034,46.036,203.034z"/>
<path style="fill:#3E8CC7;" d="M400.737,151.375c-93.572,174.98-263.874,245.186-370.22,272.772l-0.883,12.5
	c-2.613,38.912,26.818,72.58,65.73,75.193c1.589,0.106,3.178,0.159,4.776,0.159h249.821c39,0,70.621-31.62,70.621-70.621
	c0-1.615-0.053-3.24-0.168-4.855L400.737,151.375z"/>
<g>
</g>
<g>
</g>
<g>
</g>
<g>
</g>
<g>
</g>
<g>
</g>
<g>
</g>
<g>
</g>
<g>
</g>
<g>
</g>
<g>
</g>
<g>
</g>
<g>
</g>
<g>
</g>
<g>
</g>
</svg>
