<?xml version="1.0" encoding="iso-8859-1"?>
<!-- Generator: Adobe Illustrator 19.0.0, SVG Export Plug-In . SVG Version: 6.00 Build 0)  -->
<svg version="1.1" id="Capa_1" xmlns="http://www.w3.org/2000/svg" xmlns:xlink="http://www.w3.org/1999/xlink" x="0px" y="0px"
	 viewBox="0 0 512 512" style="enable-background:new 0 0 512 512;" xml:space="preserve">
<g>
	<g>
		<path d="M502,477h-22v-30c0-5.522-4.477-10-10-10h-10V267c0-16.542-13.458-30-30-30h-70V87c0-5.522-4.477-10-10-10h-44V47
			c0-5.522-4.477-10-10-10h-80c-5.523,0-10,4.478-10,10v30H100V25c0-5.522-4.477-10-10-10s-10,4.478-10,10v12H60V25
			c0-5.522-4.477-10-10-10s-10,4.478-10,10v52H10C4.477,77,0,81.478,0,87v400c0,5.522,4.477,10,10,10h492c5.523,0,10-4.478,10-10
			C512,481.478,507.523,477,502,477z M40,477H20V97h20V477z M80,477H60v-20h20V477z M80,437H60v-20h20V437z M80,397H60v-20h20V397z
			 M80,357H60v-20h20V357z M80,317H60v-20h20V317z M80,277H60v-20h20V277z M80,237H60v-20h20V237z M80,197H60v-20h20V197z M80,157
			H60v-20h20V157z M80,117H60V97h20V117z M80,77H60V57h20V77z M226,57h60v20h-60V57z M340,477H100V97h240V477z M360,257h70
			c5.514,0,10,4.486,10,10v170h-20V287c0-5.522-4.477-10-10-10h-50V257z M380,447v30h-20V297h40v140h-10
			C384.477,437,380,441.478,380,447z M460,477h-60v-20h60V477z"/>
	</g>
</g>
<g>
	<g>
		<path d="M310,437h-60c-5.51,0-10,4.49-10,10c0,5.52,4.49,10,10,10h60c5.51,0,10-4.48,10-10C320,441.49,315.51,437,310,437z"/>
	</g>
</g>
<g>
	<g>
		<path d="M210,437c-5.51,0-10,4.49-10,10c0,5.52,4.49,10,10,10s10-4.48,10-10C220,441.49,215.51,437,210,437z"/>
	</g>
</g>
<g>
	<g>
		<path d="M310,397h-45c-5.523,0-10,4.478-10,10c0,5.522,4.477,10,10,10h45c5.523,0,10-4.478,10-10C320,401.478,315.523,397,310,397
			z"/>
	</g>
</g>
<g>
</g>
<g>
</g>
<g>
</g>
<g>
</g>
<g>
</g>
<g>
</g>
<g>
</g>
<g>
</g>
<g>
</g>
<g>
</g>
<g>
</g>
<g>
</g>
<g>
</g>
<g>
</g>
<g>
</g>
</svg>
