<svg xmlns="http://www.w3.org/2000/svg" height="597pt" version="1.1" viewBox="0 -71 597.94346 597" width="597pt">
<g id="surface1">
<path d="M 554.265625 321.230469 L 519.597656 321.230469 C 587.304688 289.914062 616.800781 209.644531 585.492188 141.9375 C 563.320312 94.003906 515.238281 63.382812 462.421875 63.574219 L 444.15625 63.574219 L 444.15625 44.664062 C 444.15625 41.113281 441.273438 38.234375 437.722656 38.234375 L 361.765625 38.234375 C 358.214844 38.234375 355.332031 41.113281 355.332031 44.664062 L 355.332031 63.574219 L 262.074219 63.574219 L 262.074219 43.183594 C 273.796875 41.371094 281.832031 30.398438 280.015625 18.675781 C 278.421875 8.371094 269.664062 0.703125 259.242188 0.476562 L 149.515625 0.476562 C 137.65625 0.730469 128.242188 10.550781 128.492188 22.410156 C 128.710938 32.828125 136.382812 41.589844 146.6875 43.183594 L 146.6875 63.574219 L 136.976562 63.574219 C 62.378906 63.308594 1.691406 123.570312 1.425781 198.164062 C 1.238281 250.980469 31.855469 299.058594 79.789062 321.238281 L 45.125 321.238281 C 21.195312 320.257812 1.015625 338.859375 0.0351562 362.785156 C -0.941406 386.710938 17.660156 406.894531 41.585938 407.871094 C 45.277344 437.230469 72.066406 458.039062 101.425781 454.347656 C 125.71875 451.292969 144.851562 432.164062 147.902344 407.871094 L 246.5 407.871094 C 250.191406 437.230469 276.980469 458.039062 306.339844 454.347656 C 330.632812 451.292969 349.769531 432.164062 352.816406 407.871094 L 451.480469 407.871094 C 455.023438 437.246094 481.714844 458.1875 511.089844 454.644531 C 535.59375 451.683594 554.902344 432.375 557.859375 407.871094 C 581.726562 406.03125 599.589844 385.1875 597.75 361.316406 C 596 338.660156 577.054688 321.191406 554.324219 321.300781 Z M 462.421875 76.4375 C 530.019531 76.4375 584.816406 131.234375 584.816406 198.832031 C 584.816406 266.429688 530.019531 321.226562 462.421875 321.226562 L 444.15625 321.226562 L 444.15625 76.4375 C 444.15625 76.4375 462.421875 76.4375 462.421875 76.4375 Z M 368.195312 334.09375 L 431.289062 334.09375 L 431.289062 346.570312 L 368.195312 346.570312 Z M 368.195312 321.230469 L 368.195312 296.722656 L 431.289062 296.722656 L 431.289062 321.230469 Z M 431.292969 205.074219 L 431.292969 238.066406 L 368.195312 238.066406 L 368.195312 205.074219 Z M 368.195312 192.210938 L 368.195312 159.214844 L 431.289062 159.214844 L 431.289062 192.210938 Z M 431.292969 146.414062 L 368.195312 146.414062 L 368.195312 113.421875 L 431.292969 113.421875 Z M 368.195312 250.867188 L 431.289062 250.867188 L 431.289062 283.863281 L 368.195312 283.863281 Z M 431.292969 100.558594 L 368.195312 100.558594 L 368.195312 76.4375 L 431.292969 76.4375 Z M 368.195312 51.160156 L 431.289062 51.160156 L 431.289062 63.636719 L 368.195312 63.636719 Z M 140.835938 21.960938 C 140.835938 17.199219 144.695312 13.339844 149.453125 13.339844 L 259.242188 13.339844 C 264.019531 13.339844 267.894531 17.214844 267.894531 21.992188 C 267.894531 26.769531 264.019531 30.644531 259.242188 30.644531 L 149.515625 30.644531 C 144.71875 30.644531 140.835938 26.757812 140.835938 21.960938 Z M 159.550781 43.441406 L 249.207031 43.441406 L 249.207031 63.574219 L 159.550781 63.574219 Z M 14.578125 198.835938 C 14.753906 131.417969 69.363281 76.804688 136.78125 76.628906 L 355.332031 76.628906 L 355.332031 321.230469 L 136.976562 321.230469 C 69.402344 321.160156 14.648438 266.40625 14.578125 198.835938 Z M 94.78125 442.273438 C 72.296875 442.273438 54.070312 424.046875 54.070312 401.5625 C 54.070312 379.078125 72.296875 360.847656 94.78125 360.847656 C 117.21875 360.847656 135.425781 379 135.496094 401.433594 C 135.527344 423.957031 117.300781 442.242188 94.78125 442.273438 Z M 299.699219 442.273438 C 277.210938 442.273438 258.984375 424.046875 258.984375 401.5625 C 258.984375 379.078125 277.210938 360.847656 299.699219 360.847656 C 322.132812 360.847656 340.339844 379 340.410156 401.433594 C 340.441406 423.957031 322.214844 442.242188 299.699219 442.273438 Z M 504.613281 442.273438 C 482.128906 442.234375 463.925781 423.984375 463.964844 401.496094 C 464.003906 379.011719 482.257812 360.8125 504.742188 360.847656 C 527.148438 360.886719 545.320312 379.023438 545.390625 401.433594 C 545.429688 423.949219 527.195312 442.234375 504.675781 442.273438 C 504.652344 442.273438 504.632812 442.273438 504.613281 442.273438 Z M 557.738281 395 C 553.910156 365.660156 527.019531 344.976562 497.679688 348.808594 C 473.585938 351.953125 454.625 370.914062 451.488281 395 L 352.890625 395 C 349.199219 365.640625 322.410156 344.832031 293.046875 348.527344 C 268.757812 351.582031 249.621094 370.710938 246.574219 395 L 147.910156 395 C 144.082031 365.660156 117.191406 344.976562 87.851562 348.808594 C 63.757812 351.953125 44.796875 370.914062 41.65625 395 C 24.960938 393.109375 12.960938 378.046875 14.851562 361.351562 C 16.59375 345.953125 29.636719 334.324219 45.132812 334.351562 L 355.335938 334.351562 L 355.335938 353.257812 C 355.335938 356.808594 358.214844 359.691406 361.765625 359.691406 L 437.726562 359.691406 C 441.273438 359.691406 444.15625 356.808594 444.15625 353.257812 L 444.15625 334.09375 L 554.269531 334.09375 C 571.066406 334.0625 584.714844 347.664062 584.742188 364.464844 C 584.769531 379.964844 573.136719 393 557.742188 394.746094 C 557.738281 394.746094 557.738281 395 557.738281 395 Z M 557.738281 395 " style=" stroke:none;fill-rule:nonzero;fill:rgb(0%,0%,0%);fill-opacity:1;" />
<path d="M 94.78125 377.1875 C 81.320312 377.152344 70.378906 388.035156 70.34375 401.496094 C 70.308594 414.960938 81.191406 425.898438 94.65625 425.9375 C 108.117188 425.976562 119.058594 415.089844 119.09375 401.625 C 119.09375 401.5625 119.09375 401.496094 119.09375 401.433594 C 119.023438 388.046875 108.167969 377.226562 94.78125 377.1875 Z M 94.78125 413.011719 C 88.421875 413.050781 83.246094 407.921875 83.207031 401.5625 C 83.167969 395.203125 88.292969 390.023438 94.652344 389.984375 C 101.015625 389.945312 106.191406 395.074219 106.230469 401.433594 C 106.261719 407.792969 101.136719 412.976562 94.78125 413.011719 Z M 94.78125 413.011719 " style=" stroke:none;fill-rule:nonzero;fill:rgb(0%,0%,0%);fill-opacity:1;" />
<path d="M 299.699219 377.1875 C 286.238281 377.1875 275.320312 388.101562 275.320312 401.5625 C 275.320312 415.023438 286.238281 425.9375 299.699219 425.9375 C 313.160156 425.9375 324.074219 415.023438 324.074219 401.5625 C 324.074219 401.515625 324.074219 401.476562 324.074219 401.433594 C 324.003906 388.023438 313.109375 377.1875 299.699219 377.1875 Z M 299.699219 413.011719 C 293.335938 413.011719 288.183594 407.859375 288.183594 401.496094 C 288.183594 395.136719 293.335938 389.984375 299.699219 389.984375 C 306.035156 389.984375 311.171875 395.097656 311.210938 401.433594 C 311.25 407.792969 306.125 412.96875 299.761719 413.007812 C 299.734375 413.011719 299.71875 413.011719 299.699219 413.011719 Z M 299.699219 413.011719 " style=" stroke:none;fill-rule:nonzero;fill:rgb(0%,0%,0%);fill-opacity:1;" />
<path d="M 504.613281 377.1875 C 491.152344 377.1875 480.238281 388.101562 480.238281 401.5625 C 480.238281 415.023438 491.152344 425.9375 504.613281 425.9375 C 518.074219 425.9375 528.988281 415.023438 528.988281 401.5625 C 528.988281 401.515625 528.988281 401.476562 528.988281 401.433594 C 528.917969 388.023438 518.023438 377.1875 504.613281 377.1875 Z M 504.613281 413.011719 C 498.253906 413.011719 493.101562 407.859375 493.101562 401.496094 C 493.101562 395.136719 498.25 389.984375 504.613281 389.984375 C 510.949219 389.984375 516.085938 395.097656 516.125 401.433594 C 516.164062 407.792969 511.039062 412.96875 504.679688 413.007812 C 504.652344 413.011719 504.632812 413.011719 504.613281 413.011719 Z M 504.613281 413.011719 " style=" stroke:none;fill-rule:nonzero;fill:rgb(0%,0%,0%);fill-opacity:1;" />
</g>
</svg>