<?xml version="1.0" encoding="iso-8859-1"?>
<!-- Generator: Adobe Illustrator 18.0.0, SVG Export Plug-In . SVG Version: 6.00 Build 0)  -->
<!DOCTYPE svg PUBLIC "-//W3C//DTD SVG 1.1//EN" "http://www.w3.org/Graphics/SVG/1.1/DTD/svg11.dtd">
<svg version="1.1" id="Capa_1" xmlns="http://www.w3.org/2000/svg" xmlns:xlink="http://www.w3.org/1999/xlink" x="0px" y="0px"
	 viewBox="0 0 487.214 487.214" style="enable-background:new 0 0 487.214 487.214;" xml:space="preserve">
<g>
	<path d="M351.427,390.599c-9.791,0-17.756,7.967-17.756,17.759c0,9.791,7.965,17.757,17.756,17.757
		c9.792,0,17.758-7.966,17.758-17.757C369.185,398.566,361.219,390.599,351.427,390.599z M351.427,417.615
		c-5.103,0-9.256-4.153-9.256-9.257c0-5.105,4.152-9.259,9.256-9.259c5.104,0,9.258,4.153,9.258,9.259
		C360.685,413.462,356.532,417.615,351.427,417.615z"/>
	<path d="M436.261,390.599c-9.792,0-17.758,7.967-17.758,17.759c0,9.791,7.966,17.757,17.758,17.757
		c9.791,0,17.756-7.966,17.756-17.757C454.017,398.566,446.052,390.599,436.261,390.599z M436.261,417.615
		c-5.105,0-9.258-4.153-9.258-9.257c0-5.105,4.153-9.259,9.258-9.259c5.103,0,9.256,4.153,9.256,9.259
		C445.517,413.462,441.365,417.615,436.261,417.615z"/>
	<path d="M53.786,390.599c-9.791,0-17.756,7.967-17.756,17.759c0,9.791,7.965,17.757,17.756,17.757
		c9.792,0,17.759-7.966,17.759-17.757C71.544,398.566,63.578,390.599,53.786,390.599z M53.786,417.615
		c-5.104,0-9.256-4.153-9.256-9.257c0-5.105,4.152-9.259,9.256-9.259c5.105,0,9.259,4.153,9.259,9.259
		C63.044,413.462,58.891,417.615,53.786,417.615z"/>
	<path d="M138.623,390.599c-9.792,0-17.757,7.967-17.757,17.759c0,9.791,7.966,17.757,17.757,17.757
		c9.791,0,17.757-7.966,17.757-17.757C156.38,398.566,148.414,390.599,138.623,390.599z M138.623,417.615
		c-5.105,0-9.257-4.153-9.257-9.257c0-5.105,4.153-9.259,9.257-9.259c5.104,0,9.257,4.153,9.257,9.259
		C147.88,413.462,143.727,417.615,138.623,417.615z"/>
	<path d="M109.658,330.632H360.55c36.97,0,68.852-11.952,92.199-34.564c22.225-21.524,34.465-51.1,34.465-83.277
		c0-33.946-8.866-62.623-25.64-82.93C442.44,106.696,414.173,94.95,377.56,94.95h-86.787V70.294h5.102
		c5.681,0,10.303-4.622,10.303-10.304v-7.265c0-5.681-4.622-10.303-10.303-10.303H194.173c-5.682,0-10.304,4.622-10.304,10.303
		v7.265c0,5.682,4.622,10.304,10.304,10.304h5.101V94.95h-89.616c-36.613,0-64.88,11.746-84.016,34.911
		C8.867,150.169,0,178.845,0,212.791c0,33.946,8.867,62.623,25.642,82.931C44.777,318.886,73.044,330.632,109.658,330.632z
		 M192.369,59.99v-7.265c0-0.994,0.809-1.803,1.804-1.803h101.702c0.994,0,1.803,0.809,1.803,1.803v7.265
		c0,0.995-0.809,1.804-1.803,1.804H194.173C193.178,61.794,192.369,60.985,192.369,59.99z M207.773,70.294h74.5V94.95h-74.5V70.294z
		 M109.658,103.45h14.354v113.476c0,2.347,1.903,4.25,4.25,4.25c2.347,0,4.25-1.903,4.25-4.25V103.45h205.5v113.476
		c0,2.347,1.902,4.25,4.25,4.25c2.348,0,4.25-1.903,4.25-4.25V103.45h23.5v37.908c0,2.347,1.902,4.25,4.25,4.25
		c2.348,0,4.25-1.903,4.25-4.25v-37.895c90.405,0.535,100.203,76.568,100.203,109.328c0,51.688-33.079,91.809-82.441,104.835
		v-81.664c0-2.347-1.902-4.25-4.25-4.25c-2.348,0-4.25,1.903-4.25,4.25v83.607c-8.662,1.681-17.762,2.563-27.223,2.563H109.658
		c-7.306,0-14.085-0.495-20.384-1.413v-37.861c0-2.347-1.903-4.25-4.25-4.25s-4.25,1.903-4.25,4.25v36.296
		C16.192,304.771,8.5,241.808,8.5,212.791C8.5,179.915,18.357,103.45,109.658,103.45z"/>
	<path d="M128.261,276.608c2.347,0,4.25-1.903,4.25-4.25v-40c0-2.347-1.903-4.25-4.25-4.25c-2.347,0-4.25,1.903-4.25,4.25v40
		C124.011,274.705,125.914,276.608,128.261,276.608z"/>
	<path d="M471.023,319.77h-13c-5.101,0-9.25,4.149-9.25,9.25v9.419h-407.5v-9.419c0-5.101-4.149-9.25-9.25-9.25h-13
		c-5.101,0-9.25,4.149-9.25,9.25v41.007c0,5.101,4.149,9.25,9.25,9.25h12.841c-8.809,6.657-14.513,17.214-14.513,29.081
		c0,20.089,16.344,36.434,36.434,36.434c20.091,0,36.436-16.344,36.436-36.434c0-11.867-5.705-22.424-14.514-29.081h40.995
		c-8.809,6.657-14.513,17.214-14.513,29.081c0,20.089,16.344,36.434,36.434,36.434c20.09,0,36.434-16.344,36.434-36.434
		c0-11.867-5.705-22.424-14.513-29.081h168.961c-8.809,6.657-14.514,17.214-14.514,29.081c0,20.089,16.345,36.434,36.435,36.434
		c20.09,0,36.434-16.344,36.434-36.434c0-11.867-5.705-22.424-14.513-29.081h40.992c-8.808,6.657-14.513,17.214-14.513,29.081
		c0,20.089,16.344,36.434,36.434,36.434c20.09,0,36.434-16.344,36.434-36.434c0-11.867-5.705-22.424-14.513-29.081h12.841
		c5.101,0,9.25-4.149,9.25-9.25V329.02C480.273,323.92,476.124,319.77,471.023,319.77z M81.721,408.358
		c0,15.403-12.532,27.934-27.936,27.934c-15.403,0-27.934-12.531-27.934-27.934c0-15.404,12.531-27.936,27.934-27.936
		C69.189,380.423,81.721,392.954,81.721,408.358z M166.557,408.358c0,15.403-12.531,27.934-27.934,27.934
		s-27.934-12.531-27.934-27.934c0-15.404,12.531-27.936,27.934-27.936S166.557,392.954,166.557,408.358z M379.361,408.358
		c0,15.403-12.531,27.934-27.934,27.934c-15.403,0-27.935-12.531-27.935-27.934c0-15.404,12.532-27.936,27.935-27.936
		C366.83,380.423,379.361,392.954,379.361,408.358z M464.195,408.358c0,15.403-12.531,27.934-27.934,27.934
		c-15.402,0-27.934-12.531-27.934-27.934c0-15.404,12.531-27.936,27.934-27.936C451.664,380.423,464.195,392.954,464.195,408.358z
		 M471.773,370.027c0,0.414-0.337,0.75-0.75,0.75h-452c-0.414,0-0.75-0.336-0.75-0.75V329.02c0-0.414,0.336-0.75,0.75-0.75h13
		c0.414,0,0.75,0.336,0.75,0.75v13.669c0,2.347,1.903,4.25,4.25,4.25h416c2.348,0,4.25-1.903,4.25-4.25V329.02
		c0-0.414,0.337-0.75,0.75-0.75h13c0.413,0,0.75,0.336,0.75,0.75V370.027z"/>
</g>
<g>
</g>
<g>
</g>
<g>
</g>
<g>
</g>
<g>
</g>
<g>
</g>
<g>
</g>
<g>
</g>
<g>
</g>
<g>
</g>
<g>
</g>
<g>
</g>
<g>
</g>
<g>
</g>
<g>
</g>
</svg>
