<?xml version="1.0" encoding="utf-8"?>
<!-- Svg Vector Icons : http://www.onlinewebfonts.com/icon -->
<!DOCTYPE svg PUBLIC "-//W3C//DTD SVG 1.1//EN" "http://www.w3.org/Graphics/SVG/1.1/DTD/svg11.dtd">
<svg version="1.1" xmlns="http://www.w3.org/2000/svg" xmlns:xlink="http://www.w3.org/1999/xlink" x="0px" y="0px" viewBox="0 0 1000 1000" enable-background="new 0 0 1000 1000" xml:space="preserve">
<metadata> Svg Vector Icons : http://www.onlinewebfonts.com/icon </metadata>
<g><g transform="translate(0.000000,512.000000) scale(0.100000,-0.100000)"><path d="M3972.8,4994.5c-331.3-80.4-620.5-361.9-706.6-689.4c-21.1-80.4-26.8-628.1-26.8-3131.1v-3031.5l-134.1-126.4c-235.5-216.4-400.2-490.2-478.8-798.6c-55.5-212.6-55.5-553.4,0-766c157-610.9,639.6-1072.4,1254.3-1198.8c844.5-174.3,1683.3,363.9,1886.3,1212.2c51.7,216.4,51.7,522.8,0,743c-72.8,304.5-266.2,624.3-499.8,827.3l-113,97.7v3008.5c0,2615.9-3.8,3023.8-28.7,3131.1C5003.1,4785.7,4476.4,5117,3972.8,4994.5z M4397.9,4343.4c38.3-30.6,88.1-90,107.2-134.1c34.5-74.7,36.4-193.4,36.4-3190.4c0-3556.2-21.1-3180.8,191.5-3337.9c291.1-214.5,409.8-400.2,459.6-712.4c63.2-392.6-157-833-509.4-1018.8c-509.4-270-1128-76.6-1382.7,432.8c-237.5,474.9-95.7,995.8,354.3,1300.3C3852.2-2183,3833-2531.6,3833,984.4c0,2200.4,5.7,3111.9,21.1,3165.5c49.8,178.1,168.5,262.4,354.3,252.8C4302.2,4398.9,4340.5,4387.4,4397.9,4343.4z"/><path d="M4101.1,2286.6l-57.5-57.5V-49.7v-2277l-80.4-23c-386.8-114.9-643.4-519-576.4-909.7c61.3-360,325.6-626.2,683.7-687.5c534.3-91.9,1018.8,386.8,936.4,926.9c-49.8,317.9-275.8,580.3-574.5,670.3l-82.3,23V-51.6v2275l-42.1,47.9C4237.1,2349.8,4170.1,2353.7,4101.1,2286.6z M4449.6-2690.5c176.2-97.7,279.6-296.8,258.5-497.9c-26.8-258.5-245.1-459.6-503.7-463.4c-289.2-5.7-524.7,226-524.7,515.1c0,204.9,143.6,417.5,327.5,484.5C4137.5-2602.4,4321.3-2619.7,4449.6-2690.5z"/><path d="M5598.7,3924c-55.5-59.4-55.5-166.6-1.9-216.4c38.3-34.5,80.4-36.4,888.6-36.4s850.3,1.9,888.6,36.4c57.5,51.7,53.6,162.8-3.8,218.3c-44,42.1-47.9,42.1-886.7,42.1h-844.5L5598.7,3924z"/><path d="M5652.3,2920.5c-103.4-38.3-132.1-176.2-51.7-250.9c42.1-40.2,61.3-42.1,413.7-42.1c363.9,0,367.7,0,413.6,47.9c26.8,24.9,47.9,67,47.9,93.8c0,145.5-55.5,164.7-463.4,162.8C5830.4,2932,5667.6,2926.2,5652.3,2920.5z"/><path d="M5594.8,1842.3c-40.2-40.2-49.8-132.1-19.2-191.5c38.3-68.9,116.8-76.6,909.6-76.6c792.8,0,871.3,7.7,909.6,76.6c30.6,59.4,21.1,151.3-19.2,191.5c-36.4,36.4-63.2,38.3-890.5,38.3S5631.2,1878.7,5594.8,1842.3z"/><path d="M5592.9,791c-59.4-61.3-67-95.8-32.5-160.9c44-84.3,65.1-88.1,451.9-90c367.7,0,369.6,0,415.6,47.9c30.6,28.7,47.9,68.9,47.9,105.3c0,36.4-17.2,76.6-47.9,105.3c-46,47.9-49.8,47.9-411.7,47.9h-367.7L5592.9,791z"/><path d="M5594.8-245c-23-23-38.3-63.2-38.3-105.3s15.3-82.3,38.3-105.3c36.4-36.4,63.2-38.3,890.5-38.3s854.1,1.9,890.5,38.3c23,23,38.3,63.2,38.3,105.3s-15.3,82.3-38.3,105.3c-36.4,36.4-63.2,38.3-890.5,38.3S5631.2-208.6,5594.8-245z"/><path d="M5606.3-1281.1c-70.9-55.5-70.9-170.4,0-226c47.9-36.4,76.6-40.2,394.5-40.2c421.3,0,474.9,19.2,474.9,164.7c0,26.8-21.1,68.9-47.9,93.8c-46,47.9-49.8,47.9-407.9,47.9C5682.9-1240.8,5654.2-1242.8,5606.3-1281.1z"/></g></g>
</svg>